<svg xmlns="http://www.w3.org/2000/svg" viewBox="0 0 64 64" fill="none">
  <path d="M44 10 C38 10 34 14 34 20 C34 22 35 24 36 26 L14 48 C12 50 12 53 14 55 C16 57 19 57 21 55 L43 33 C45 34 47 35 49 35 C55 35 59 31 59 25 C59 23 58 21 57 19 L51 25 L47 21 L53 15 C51 13 48 10 44 10Z" fill="#90A4AE"/>
  <circle cx="17" cy="52" r="3" fill="#546E7A"/>
  <path d="M44 10 C38 10 34 14 34 20 C34 22 35 24 36 26 L14 48 C12 50 12 53 14 55 C16 57 19 57 21 55 L43 33 C45 34 47 35 49 35 C55 35 59 31 59 25 C59 23 58 21 57 19 L51 25 L47 21 L53 15 C51 13 48 10 44 10Z" stroke="#546E7A" stroke-width="1" fill="none"/>
</svg>
